HIERARCHY
ROOT Pelvis
{
	OFFSET 0.000000 0.000000 0.000000
	CHANNELS 6 Xposition Yposition Zposition Zrotation Yrotation Xrotation 
	JOINT Left_hip
	{
		OFFSET 0.067986 -0.089946 -0.007639
		CHANNELS 3 Zrotation Yrotation Xrotation
		JOINT Left_knee
		{
			OFFSET 0.036308 -0.388288 -0.004016
			CHANNELS 3 Zrotation Yrotation Xrotation
			JOINT Left_ankle
			{
				OFFSET -0.012264 -0.413250 -0.042878
				CHANNELS 3 Zrotation Yrotation Xrotation
				JOINT Left_foot
				{
					OFFSET 0.024043 -0.058563 0.118570
					CHANNELS 3 Zrotation Yrotation Xrotation
					End Site
					{
						OFFSET 0.000000 0.000000 0.000000
					}
				}
			}
		}
	}
	JOINT Right_hip
	{
		OFFSET -0.065648 -0.089374 -0.003858
		CHANNELS 3 Zrotation Yrotation Xrotation
		JOINT Right_knee
		{
			OFFSET -0.042132 -0.395021 -0.006361
			CHANNELS 3 Zrotation Yrotation Xrotation
			JOINT Right_ankle
			{
				OFFSET 0.014805 -0.413264 -0.041054
				CHANNELS 3 Zrotation Yrotation Xrotation
				JOINT Right_foot
				{
					OFFSET -0.021758 -0.049013 0.121832
					CHANNELS 3 Zrotation Yrotation Xrotation
					End Site
					{
						OFFSET 0.000000 0.000000 0.000000
					}
				}
			}
		}
	}
	JOINT Spine1
	{
		OFFSET -0.002755 0.104406 -0.022277
		CHANNELS 3 Zrotation Yrotation Xrotation
		JOINT Spine2
		{
			OFFSET 0.004136 0.129393 -0.002186
			CHANNELS 3 Zrotation Yrotation Xrotation
			JOINT Spine3
			{
				OFFSET 0.001906 0.049304 0.025578
				CHANNELS 3 Zrotation Yrotation Xrotation
				JOINT Neck
				{
					OFFSET -0.004620 0.210958 -0.044063
					CHANNELS 3 Zrotation Yrotation Xrotation
					JOINT Head
					{
						OFFSET 0.003833 0.067393 0.052435
						CHANNELS 3 Zrotation Yrotation Xrotation
						End Site
						{
							OFFSET 0.000000 0.000000 0.000000
						}
					}
				}
				JOINT Left_collar
				{
					OFFSET 0.070771 0.116689 -0.037192
					CHANNELS 3 Zrotation Yrotation Xrotation
					JOINT Left_shoulder
					{
						OFFSET 0.080652 0.031596 -0.005617
						CHANNELS 3 Zrotation Yrotation Xrotation
						JOINT Left_elbow
						{
							OFFSET 0.262654 -0.015020 -0.027939
							CHANNELS 3 Zrotation Yrotation Xrotation
							JOINT Left_wrist
							{
								OFFSET 0.250438 0.010062 -0.000990
								CHANNELS 3 Zrotation Yrotation Xrotation
								JOINT Left_palm
								{
									OFFSET 0.081198 -0.010037 -0.013706
									CHANNELS 3 Zrotation Yrotation Xrotation
									End Site
									{
										OFFSET 0.000000 0.000000 0.000000
									}
								}
							}
						}
					}
				}
				JOINT Right_collar
				{
					OFFSET -0.072972 0.115556 -0.040762
					CHANNELS 3 Zrotation Yrotation Xrotation
					JOINT Right_shoulder
					{
						OFFSET -0.082917 0.031841 -0.006673
						CHANNELS 3 Zrotation Yrotation Xrotation
						JOINT Right_elbow
						{
							OFFSET -0.252882 -0.013790 -0.020410
							CHANNELS 3 Zrotation Yrotation Xrotation
							JOINT Right_wrist
							{
								OFFSET -0.255570 0.009163 -0.005138
								CHANNELS 3 Zrotation Yrotation Xrotation
								JOINT Right_palm
								{
									OFFSET -0.080804 -0.007282 -0.010415
									CHANNELS 3 Zrotation Yrotation Xrotation
									End Site
									{
										OFFSET 0.000000 0.000000 0.000000
									}
								}
							}
						}
					}
				}
			}
		}
	}
}
MOTION
Frames: 11
Frame Time: 0.100000
0.000000 0.000000 0.000000 175.223566 24.028646 -12.924055 7.068648 5.809821 2.401782 -3.355803 -18.421131 -1.771615 -4.910565 15.261690 -5.121589 3.658543 -1.793637 -4.832423 -6.939115 -4.942547 1.661244 3.801257 13.121265 1.579371 6.196810 -13.778353 -6.470570 -1.226747 5.661275 2.999900 1.144161 1.690385 3.031378 0.915828 -3.123945 0.957698 1.485290 1.303761 0.493034 -5.513877 0.707946 2.114958 5.677395 1.989079 -16.085260 -6.404851 2.335085 -8.644548 1.295390 2.131431 -13.833128 1.589206 -5.653107 -9.089622 -0.265974 -7.081709 25.669895 -6.077510 -8.322207 -7.597269 5.853566 0.560425 -2.916341 -0.888240 -8.474617 -18.972331 -1.557765 8.184279 -2.979526 2.577480 6.781959 28.190478 10.628870 7.854438 -6.761435 
-0.000028 -0.000017 0.000306 175.201533 24.037519 -12.980183 7.109635 5.800889 2.486330 -3.366832 -18.438142 -1.799647 -4.846688 15.223795 -5.108152 3.604283 -1.728919 -4.846817 -6.933466 -4.938582 1.750019 3.813580 13.111072 1.559045 6.205525 -13.757145 -6.495118 -1.233996 5.603113 3.029378 1.102513 1.705424 2.989199 0.957093 -3.122618 1.003580 1.500395 1.313549 0.506689 -5.444103 0.726880 2.290531 5.664762 2.027788 -15.862810 -6.390834 2.404582 -8.653601 1.132936 2.048902 -13.783799 1.611224 -5.696784 -8.917788 -0.395901 -6.910463 25.712123 -6.115232 -8.335042 -7.655198 5.868963 0.527257 -2.960603 -0.763349 -8.275573 -18.984127 -1.623799 8.226436 -3.075633 2.658574 6.642583 28.122839 10.676841 7.857895 -6.789871 
0.000098 0.000006 0.000571 175.161052 24.162168 -13.002287 7.141933 5.770775 2.450298 -3.400538 -18.526280 -1.735950 -4.847537 15.191314 -5.142183 3.604919 -1.727369 -4.842606 -6.910016 -4.956462 1.785661 3.822844 13.059157 1.585262 6.167334 -13.796741 -6.540458 -1.211766 5.593363 3.043174 1.038377 1.719842 3.014198 0.965476 -3.130450 1.092663 1.505008 1.300253 0.464824 -5.457865 0.741743 2.241139 5.654463 2.008657 -15.823123 -6.450668 2.392893 -8.577618 1.127515 2.080499 -13.718669 1.566319 -5.687363 -8.779111 -0.316485 -6.921540 25.757708 -6.125050 -8.335386 -7.684612 5.991417 0.554717 -2.933397 -0.685570 -8.279199 -18.982620 -1.658490 8.210047 -3.199192 2.579307 6.677732 28.030362 10.712392 7.846737 -6.751430 
0.000163 -0.000037 0.000800 175.140438 24.253889 -12.919277 7.151573 5.746081 2.372317 -3.390674 -18.538528 -1.800813 -4.861306 15.153643 -5.097723 3.615597 -1.719522 -4.813464 -6.894950 -4.976565 1.760315 3.813323 12.989903 1.502035 6.141826 -13.815680 -6.541230 -1.156430 5.590507 3.113281 1.020018 1.767716 2.975462 0.923095 -3.088250 1.065385 1.472786 1.321019 0.419986 -5.444362 0.791393 2.362788 5.620176 2.048589 -15.638221 -6.500364 2.471930 -8.628148 1.104033 1.961474 -13.693235 1.616421 -5.681632 -8.872043 -0.313171 -6.911958 25.749595 -6.139712 -8.350892 -7.680597 6.012566 0.470624 -2.929598 -0.679210 -8.261078 -18.919150 -1.678762 8.214286 -3.134515 2.605603 6.660597 28.040195 10.716983 7.899631 -6.758361 
0.000271 -0.000023 0.000994 175.119275 24.322798 -12.952248 7.170511 5.724413 2.351472 -3.407847 -18.570843 -1.720552 -4.846623 15.127602 -5.132405 3.607228 -1.696437 -4.786731 -6.885610 -4.980383 1.789902 3.832121 12.940136 1.548323 6.095368 -13.804591 -6.581000 -1.099892 5.540171 3.144608 1.010387 1.794909 2.996236 0.887944 -3.062082 1.191675 1.445523 1.346259 0.390379 -5.433754 0.850919 2.538221 5.571537 2.130493 -15.539452 -6.575036 2.497463 -8.593949 1.006272 2.007595 -13.584224 1.606225 -5.710124 -8.737274 -0.413079 -6.919538 25.729971 -6.134488 -8.326259 -7.684566 6.014011 0.491727 -2.888067 -0.724164 -8.159157 -18.966842 -1.703904 8.188579 -3.195754 2.631327 6.687319 27.977272 10.720048 7.864904 -6.724980 
0.000490 -0.000027 0.001430 175.075024 24.492139 -12.970644 7.200803 5.677467 2.323401 -3.417131 -18.653849 -1.695351 -4.848779 15.055496 -5.145754 3.609295 -1.657571 -4.750895 -6.862412 -5.008130 1.845797 3.846476 12.842251 1.556485 6.021078 -13.816520 -6.640288 -1.012543 5.482345 3.221415 0.949905 1.816357 2.963415 0.871434 -3.059736 1.330886 1.422276 1.353574 0.352977 -5.422412 0.846922 2.707138 5.534438 2.135359 -15.355753 -6.708963 2.539853 -8.563996 0.863663 1.949575 -13.477668 1.647732 -5.789822 -8.679156 -0.351390 -6.930735 25.722982 -6.168472 -8.324936 -7.703609 6.115451 0.471244 -2.869908 -0.685254 -8.076356 -18.968214 -1.775615 8.260892 -3.319619 2.485938 6.707898 27.943263 10.773278 7.867505 -6.697162 
0.000600 -0.000039 0.001952 175.061003 24.574216 -12.936346 7.223735 5.648175 2.297155 -3.416864 -18.630569 -1.709099 -4.934147 14.970675 -5.195926 3.771016 -1.674130 -4.736632 -6.857035 -5.017155 1.845983 3.864116 12.698839 1.561327 5.906052 -13.750961 -6.690990 -0.885343 5.501468 3.341837 0.971694 1.876798 2.900362 0.803609 -2.964363 1.555659 1.343733 1.399570 0.193986 -5.375331 0.833451 2.813193 5.390548 2.107372 -15.144911 -7.137418 2.766887 -8.574509 0.701476 1.877213 -13.236767 2.221079 -7.017938 -8.757257 0.191591 -7.401748 25.696153 -6.322256 -8.381207 -7.695219 6.421666 0.372950 -2.825399 -0.741048 -8.066505 -18.910215 -2.001133 8.700668 -3.720514 2.278862 7.081882 27.640110 10.797817 7.924568 -6.575226 
0.000857 -0.000112 0.002864 175.091273 24.568827 -12.952001 7.247814 5.521592 2.390763 -3.375464 -18.304048 -1.764494 -4.932919 14.637770 -5.276625 3.994314 -1.355360 -4.496670 -6.878853 -4.896156 1.941850 3.898194 12.229589 1.522776 5.628091 -13.366963 -6.768982 -0.427757 5.305994 3.761282 0.914647 1.974977 2.702550 0.881142 -2.892218 2.004226 1.311800 1.414493 0.030892 -5.289075 1.016869 2.949960 5.105573 2.265331 -14.902525 -8.120201 3.166812 -8.530719 0.176434 1.929587 -12.832036 4.199125 -10.395230 -11.378514 1.320036 -8.075267 22.702851 -6.955261 -8.404873 -7.384830 7.330212 0.080433 -2.902843 -0.808622 -8.300225 -18.650272 -3.569486 13.177929 -5.891079 1.337510 7.966871 25.230821 11.312330 7.800035 -6.249776 
0.001621 -0.000142 0.003721 175.151537 24.410725 -13.015585 7.316545 5.290287 2.504746 -3.350244 -17.494858 -1.750436 -4.606120 13.881467 -5.228988 3.977937 -0.409025 -4.398538 -6.872804 -4.616794 1.924727 3.972054 11.427802 1.733717 5.528916 -12.599838 -7.005792 -0.422810 4.768608 4.311029 0.837098 2.089571 2.530660 0.958769 -2.805006 2.258071 1.254749 1.413891 0.037682 -4.900705 1.407587 3.311740 4.800163 2.642245 -14.519002 -9.082653 3.945555 -8.613544 -1.883515 1.729974 -11.867811 8.201854 -16.595308 -15.159061 1.463049 -8.117581 17.649038 -8.187032 -8.492538 -7.227716 8.032101 -0.599669 -3.257114 0.403696 -8.044267 -17.866793 -7.388440 21.916591 -9.712415 0.585943 8.397791 20.259045 12.407153 7.618739 -5.992948 
0.002868 0.000002 0.004068 175.231101 24.185147 -13.042964 7.387103 4.851879 2.466752 -3.357324 -16.058500 -1.635956 -3.796922 12.407944 -5.024157 3.249877 1.343600 -4.551272 -6.862970 -4.210567 1.862749 4.013200 10.117001 1.842417 5.466946 -11.387623 -7.271285 -0.620496 3.947435 5.271667 0.604757 2.236685 2.321296 1.162363 -2.721045 2.486525 1.164581 1.416989 0.197637 -4.390226 1.449597 3.674873 4.688136 3.001352 -14.384124 -10.119651 5.134328 -8.387331 -6.597557 1.717414 -8.835099 14.551888 -27.875334 -20.433068 2.655715 -8.152242 7.766705 -10.261815 -8.398621 -6.932505 8.799491 -1.676083 -3.841208 3.550786 -7.093944 -16.341319 -14.857377 34.810016 -17.463106 -2.132820 9.103834 11.885300 14.428697 7.175449 -5.700466 
0.004541 0.000209 0.003806 175.168084 24.140253 -13.158668 7.557137 4.290523 2.278457 -3.389316 -14.027297 -1.410073 -2.379568 9.996398 -4.506447 1.584796 4.066573 -5.283407 -6.773004 -3.760361 1.830929 4.001223 8.195037 1.960397 5.684834 -9.660023 -7.576799 -1.313192 2.466100 6.472280 0.074268 2.309996 1.937898 1.823625 -2.761742 3.073339 1.168071 1.334020 0.338919 -3.894425 1.392475 4.054892 4.423488 2.860462 -14.565725 -10.614665 6.262365 -7.271947 -14.604571 2.422250 -2.540464 20.400578 -43.776774 -20.303943 1.597644 -8.198975 -1.771270 -12.508988 -8.254345 -7.536233 9.907858 -2.799602 -4.483913 9.326298 -5.166340 -13.281035 -28.019907 49.618827 -28.627582 -4.041921 9.262629 3.246426 17.141933 6.567677 -6.101863 
